<svg xmlns="http://www.w3.org/2000/svg" width="11626.667" height="13046.667" version="1.0" viewBox="0 0 8720 9785"><path d="M8 919.4v913.5l4.3.6c2.3.3 432.8.4 956.6.3l952.3-.3 203.7-337.2 203.6-337.3 758.5.2c417.2 0 904 .4 1081.8.7l323.4.6 203.5 336.7 203.5 336.8h696.2c442.4 0 705.2.4 721.1 1 38.1 1.5 66.5 4.5 102.5 10.6 212.9 36.3 402.8 162.8 519.1 346 72.2 113.9 112.4 241.3 118.9 376.9.8 16.5 1 315.2.8 1058-.4 956.8-.5 1036.3-2.1 1052.2-4.7 48.6-10.6 84.4-20.3 123.8-39.8 160.5-128.7 302.1-256.4 408.5-74 61.6-166.8 112.1-258.8 140.9-58.2 18.2-107.6 27.7-178.7 34.3-10.1.9-716.2 1.3-3173.2 1.5L8 5388v4397h2307V7196h2121l2.7 3.8c1.6 2.1 404.9 584.6 896.3 1294.5L6228.5 9785h1237.8c680.7 0 1237.7-.2 1237.7-.5s-473.2-678.7-1051.6-1507.6C7074.1 7448 6601.1 6769.6 6601.3 6769.4c.2-.3 13.4-6.2 29.3-13.3 461.8-205.2 844.4-470.5 1156.6-802.1 175.8-186.8 331.8-400.2 455.1-622.5 38-68.5 82.1-156.7 112.9-225.5 164.8-367.9 259.2-765.3 287.3-1209 9.3-147 10.9-312.6 4.5-464-28.5-675.7-209.7-1263.2-543.9-1764.5-129-193.4-275.2-368.5-442.1-529.4-279.9-269.8-614.2-494.8-1003.5-675.3-479.3-222.2-1020.2-363-1628-423.8-57-5.7-122.5-11.3-180.5-15.5-133.7-9.6-264.3-15.1-414-17.5-38.8-.6-868.7-1-2244.2-1H8v913.4z"/><path d="M3383 2328.7c-99.8 4.3-189.5 17.7-280.5 41.9-255.9 67.8-485.4 214.8-655.6 419.9-41.8 50.4-78.5 102.2-112.9 159.5-32.8 54.5-64.3 117.9-88.8 178.5-128 316.9-122.5 677.7 15 990.9 55.5 126.5 130 241 225.2 346.6 18.4 20.3 65.7 67.6 87.1 87 171.6 155.2 379.7 260.6 604.3 306 56.2 11.3 111.2 18.6 175.2 23.1 24.5 1.7 107 2.3 135.5 1 123.3-5.7 234.2-26.2 349-64.5 61.2-20.5 106.9-39.4 166.5-69.3 157.9-78.9 295.4-187.7 409.4-323.9 136.6-163.2 230.4-358.5 272-566.4 18.9-94.3 26.6-184.8 24.4-285.2-5.3-242.6-80.6-479.1-217.2-681.8-95-141-220.7-264.7-362.6-357.2-192.6-125.4-411-195.4-642.5-205.8-19.5-.9-86.2-1.1-103.5-.3z"/></svg>